<svg width="1024" height="1024" viewBox="0 0 1024 1024" fill="none" xmlns="http://www.w3.org/2000/svg">
<rect width="1024" height="1024" rx="89" fill="white"/>
<g transform="translate(0, -105)">
<path d="M288.8 932V923L307.7 916.7C319.7 912.5 327.5 907.1 331.1 900.5C334.7 893.3 336.5 883.4 336.5 870.8V400.1C336.5 388.1 334.7 378.8 331.1 372.2C328.1 365 320.9 359.3 309.5 355.1L288.8 347V338H546.2C617 338 671.3 351.5 709.1 378.5C746.9 404.9 765.8 441.8 765.8 489.2C765.8 515.6 755.9 542 736.1 568.4C716.3 594.8 685.1 615.2 642.5 629.6L767.6 878C773 888.2 779 896.6 785.6 903.2C792.8 909.2 802.1 914.6 813.5 919.4L825.2 923.9V932H664.1L530.9 648.5H469.7V870.8C469.7 882.2 471.5 891.5 475.1 898.7C478.7 905.9 486.2 911.3 497.6 914.9L519.2 923V932H288.8ZM469.7 630.5H512.9C556.1 630.5 587.3 619.1 606.5 596.3C625.7 572.9 635.3 538.4 635.3 492.8C635.3 446.6 626.3 412.4 608.3 390.2C590.3 367.4 560 356 517.4 356H469.7V630.5Z" fill="url(#paint0_linear_4_14)" fill-opacity="0.3"/>
<path d="M288.8 932V923L307.7 916.7C319.7 912.5 327.5 907.1 331.1 900.5C334.7 893.3 336.5 883.4 336.5 870.8V400.1C336.5 388.1 334.7 378.8 331.1 372.2C328.1 365 320.9 359.3 309.5 355.1L288.8 347V338H546.2C617 338 671.3 351.5 709.1 378.5C746.9 404.9 765.8 441.8 765.8 489.2C765.8 515.6 755.9 542 736.1 568.4C716.3 594.8 685.1 615.2 642.5 629.6L767.6 878C773 888.2 779 896.6 785.6 903.2C792.8 909.2 802.1 914.6 813.5 919.4L825.2 923.9V932H664.1L530.9 648.5H469.7V870.8C469.7 882.2 471.5 891.5 475.1 898.7C478.7 905.9 486.2 911.3 497.6 914.9L519.2 923V932H288.8ZM469.7 630.5H512.9C556.1 630.5 587.3 619.1 606.5 596.3C625.7 572.9 635.3 538.4 635.3 492.8C635.3 446.6 626.3 412.4 608.3 390.2C590.3 367.4 560 356 517.4 356H469.7V630.5Z" fill="url(#paint1_linear_4_14)" fill-opacity="0.3"/>
<path d="M268.8 932V923L287.7 916.7C299.7 912.5 307.5 907.1 311.1 900.5C314.7 893.3 316.5 883.4 316.5 870.8V400.1C316.5 388.1 314.7 378.8 311.1 372.2C308.1 365 300.9 359.3 289.5 355.1L268.8 347V338H526.2C597 338 651.3 351.5 689.1 378.5C726.9 404.9 745.8 441.8 745.8 489.2C745.8 515.6 735.9 542 716.1 568.4C696.3 594.8 665.1 615.2 622.5 629.6L747.6 878C753 888.2 759 896.6 765.6 903.2C772.8 909.2 782.1 914.6 793.5 919.4L805.2 923.9V932H644.1L510.9 648.5H449.7V870.8C449.7 882.2 451.5 891.5 455.1 898.7C458.7 905.9 466.2 911.3 477.6 914.9L499.2 923V932H268.8ZM449.7 630.5H492.9C536.1 630.5 567.3 619.1 586.5 596.3C605.7 572.9 615.3 538.4 615.3 492.8C615.3 446.6 606.3 412.4 588.3 390.2C570.3 367.4 540 356 497.4 356H449.7V630.5Z" fill="url(#paint2_linear_4_14)" fill-opacity="0.3"/>
<path d="M248.8 932V923L267.7 916.7C279.7 912.5 287.5 907.1 291.1 900.5C294.7 893.3 296.5 883.4 296.5 870.8V400.1C296.5 388.1 294.7 378.8 291.1 372.2C288.1 365 280.9 359.3 269.5 355.1L248.8 347V338H506.2C577 338 631.3 351.5 669.1 378.5C706.9 404.9 725.8 441.8 725.8 489.2C725.8 515.6 715.9 542 696.1 568.4C676.3 594.8 645.1 615.2 602.5 629.6L727.6 878C733 888.2 739 896.6 745.6 903.2C752.8 909.2 762.1 914.6 773.5 919.4L785.2 923.9V932H624.1L490.9 648.5H429.7V870.8C429.7 882.2 431.5 891.5 435.1 898.7C438.7 905.9 446.2 911.3 457.6 914.9L479.2 923V932H248.8ZM429.7 630.5H472.9C516.1 630.5 547.3 619.1 566.5 596.3C585.7 572.9 595.3 538.4 595.3 492.8C595.3 446.6 586.3 412.4 568.3 390.2C550.3 367.4 520 356 477.4 356H429.7V630.5Z" fill="url(#paint3_linear_4_14)"/>
</g>
<defs>
<linearGradient id="paint0_linear_4_14" x1="308.5" y1="227" x2="806.5" y2="827" gradientUnits="userSpaceOnUse">
<stop stop-color="#06B6D4"/>
<stop offset="0.15" stop-color="#3B82F6"/>
<stop offset="0.3" stop-color="#8B5CF6"/>
<stop offset="0.4" stop-color="#D946EF"/>
<stop offset="0.6" stop-color="#F43F5E"/>
<stop offset="0.75" stop-color="#F97316"/>
<stop offset="0.8" stop-color="#F2930F"/>
<stop offset="1" stop-color="#22C55E"/>
</linearGradient>
<linearGradient id="paint1_linear_4_14" x1="308.5" y1="227" x2="806.5" y2="827" gradientUnits="userSpaceOnUse">
<stop stop-color="#06B6D4"/>
<stop offset="0.15" stop-color="#3B82F6"/>
<stop offset="0.3" stop-color="#8B5CF6"/>
<stop offset="0.4" stop-color="#D946EF"/>
<stop offset="0.6" stop-color="#F43F5E"/>
<stop offset="0.75" stop-color="#F97316"/>
<stop offset="0.8" stop-color="#F2930F"/>
<stop offset="1" stop-color="#22C55E"/>
</linearGradient>
<linearGradient id="paint2_linear_4_14" x1="288.5" y1="227" x2="786.5" y2="827" gradientUnits="userSpaceOnUse">
<stop stop-color="#06B6D4"/>
<stop offset="0.15" stop-color="#3B82F6"/>
<stop offset="0.3" stop-color="#8B5CF6"/>
<stop offset="0.4" stop-color="#D946EF"/>
<stop offset="0.6" stop-color="#F43F5E"/>
<stop offset="0.75" stop-color="#F97316"/>
<stop offset="0.8" stop-color="#F2930F"/>
<stop offset="1" stop-color="#22C55E"/>
</linearGradient>
<linearGradient id="paint3_linear_4_14" x1="268.5" y1="227" x2="766.5" y2="827" gradientUnits="userSpaceOnUse">
<stop stop-color="#06B6D4"/>
<stop offset="0.15" stop-color="#3B82F6"/>
<stop offset="0.3" stop-color="#8B5CF6"/>
<stop offset="0.4" stop-color="#D946EF"/>
<stop offset="0.6" stop-color="#F43F5E"/>
<stop offset="0.75" stop-color="#F97316"/>
<stop offset="0.8" stop-color="#F2930F"/>
<stop offset="1" stop-color="#22C55E"/>
</linearGradient>
</defs>
</svg>
